<svg width="132" height="149" viewBox="0 0 132 149" fill="none" xmlns="http://www.w3.org/2000/svg">
<g filter="url(#filter0_d_195_272)">
<path d="M19.6564 129.629C19.6564 128.022 19.3256 126.726 18.6641 125.741C18.0161 124.742 16.9969 124.242 15.6064 124.242C14.7694 124.242 14.0269 124.512 13.3789 125.052C13.0144 125.619 12.7241 126.382 12.5081 127.341C12.3056 128.299 12.2044 129.21 12.2044 130.074C12.2044 131.667 12.5284 132.943 13.1764 133.902C13.8244 134.86 14.8504 135.339 16.2544 135.339C17.0239 135.339 17.6786 135.029 18.2186 134.408C19.1771 133.287 19.6564 131.694 19.6564 129.629ZM15.5659 137.243C13.5949 137.243 12.0964 136.595 11.0704 135.299C10.0444 133.989 9.53137 132.282 9.53137 130.176C9.53137 128.056 10.1659 126.227 11.4349 124.688C12.7039 123.149 14.3171 122.379 16.2746 122.379C18.2456 122.379 19.7441 123.041 20.7701 124.364C21.8096 125.687 22.3294 127.408 22.3294 129.528C22.3294 131.647 21.6949 133.463 20.4259 134.975C19.1569 136.487 17.5369 137.243 15.5659 137.243ZM34.7706 128.819L34.5681 133.274C34.5681 134.462 34.7639 135.663 35.1554 136.878C34.7369 137.041 34.3116 137.122 33.8796 137.122C32.7051 137.122 32.1179 136.5 32.1179 135.258C32.1179 134.34 32.1989 133.26 32.3609 132.018C32.5229 130.776 32.6039 130.014 32.6039 129.73C32.6039 129.028 32.2866 128.677 31.6521 128.677C30.9771 128.677 30.2279 129.312 29.4044 130.581C28.5809 131.836 28.1084 132.889 27.9869 133.74C28.0139 134.131 28.1489 135.137 28.3919 136.757C27.9734 136.919 27.5144 137 27.0149 137C25.9754 137 25.4556 136.494 25.4556 135.481C25.4556 134.995 25.5299 134.043 25.6784 132.626C25.8269 131.195 25.9011 130.047 25.9011 129.183C25.9011 126.308 25.7391 123.932 25.4151 122.055C25.8471 121.893 26.2926 121.812 26.7516 121.812C27.2106 121.812 27.5886 121.968 27.8856 122.278C28.1961 122.575 28.3514 122.987 28.3514 123.513C28.3514 124.04 28.2771 125.127 28.1286 126.774C27.9936 128.421 27.9261 129.703 27.9261 130.621C28.3986 129.622 29.0871 128.711 29.9916 127.887C30.9096 127.05 31.8209 126.632 32.7254 126.632C34.0889 126.632 34.7706 127.361 34.7706 128.819ZM53.3603 123.756L53.259 127.098C53.259 128.934 53.313 130.581 53.421 132.039C53.529 133.483 53.772 135.056 54.15 136.757C53.853 137 53.3805 137.122 52.7325 137.122C51.477 137.122 50.8493 136.575 50.8493 135.481C50.8493 134.577 50.8898 133.193 50.9708 131.33C51.0653 129.467 51.1125 128.009 51.1125 126.956C50.3835 128.009 49.614 129.312 48.804 130.864C48.0075 132.403 47.6093 133.348 47.6093 133.699C47.6093 134.05 47.643 134.32 47.7105 134.509C47.4135 134.698 47.0153 134.793 46.5158 134.793C46.0298 134.793 45.618 134.658 45.2805 134.388C44.9565 134.118 44.6798 133.746 44.4503 133.274C44.2343 132.801 43.8428 131.877 43.2758 130.5C42.7223 129.109 42.216 127.914 41.757 126.915C41.406 129.089 41.2305 131.013 41.2305 132.687C41.2305 134.361 41.2845 135.717 41.3925 136.757C40.9605 136.919 40.5285 137 40.0965 137C39.2325 137 38.8005 136.568 38.8005 135.704C38.8005 135.042 38.949 133.726 39.246 131.755C39.5565 129.771 39.7118 128.097 39.7118 126.733C39.7118 125.37 39.6375 124.094 39.489 122.906C40.218 122.717 40.785 122.622 41.19 122.622C41.9325 122.622 42.432 122.886 42.6885 123.412C43.0935 124.263 43.6875 125.619 44.4705 127.482C45.267 129.332 45.915 130.756 46.4145 131.755C46.5495 131.472 46.86 130.864 47.346 129.933C47.8455 128.988 48.2573 128.184 48.5813 127.523C48.9188 126.848 49.2563 126.051 49.5938 125.133C49.9448 124.202 50.1675 123.392 50.262 122.703C50.748 122.568 51.2205 122.501 51.6795 122.501C52.152 122.501 52.5503 122.602 52.8743 122.805C53.1983 123.007 53.3603 123.324 53.3603 123.756ZM57.7405 133.638L57.943 130.722C57.943 129.413 57.754 128.171 57.376 126.996C57.754 126.834 58.2197 126.753 58.7732 126.753C59.8532 126.753 60.3932 127.354 60.3932 128.556C60.3932 129.096 60.319 129.858 60.1705 130.844C60.022 131.829 59.9477 132.511 59.9477 132.889C59.9477 133.254 59.9545 133.524 59.968 133.699C59.9815 133.861 60.0152 134.057 60.0692 134.286C60.1502 134.745 60.4135 134.975 60.859 134.975C61.318 134.975 61.804 134.617 62.317 133.902C62.8435 133.173 63.262 132.369 63.5725 131.492C63.8965 130.614 64.0585 129.919 64.0585 129.406C63.991 128.34 63.8762 127.536 63.7142 126.996C64.1462 126.834 64.585 126.753 65.0305 126.753C65.4895 126.753 65.8675 126.895 66.1645 127.179C66.475 127.462 66.6302 127.84 66.6302 128.313C66.6302 135.684 65.2802 140.105 62.5802 141.577C61.9727 141.901 61.2842 142.062 60.5147 142.062C59.7452 142.062 59.0702 141.86 58.4897 141.455C57.9227 141.05 57.6392 140.483 57.6392 139.754C57.6392 139.268 57.8215 138.856 58.186 138.519C58.5505 138.195 58.9825 138.033 59.482 138.033C59.59 138.033 59.725 138.046 59.887 138.073C59.8465 138.249 59.8262 138.404 59.8262 138.539C59.8262 139.727 60.238 140.321 61.0615 140.321C61.561 140.321 62.0132 140.051 62.4182 139.511C62.8232 138.971 63.1472 138.31 63.3902 137.527C63.8627 135.933 64.099 134.489 64.099 133.193C63.694 134.286 63.1405 135.171 62.4385 135.846C61.75 136.507 61.0007 136.838 60.1907 136.838C58.5572 136.838 57.7405 135.771 57.7405 133.638ZM76.4263 122.379C77.6008 122.379 78.6268 122.724 79.5043 123.412C80.3818 124.101 80.8205 124.992 80.8205 126.085C80.8205 126.666 80.6585 127.145 80.3345 127.523C80.0105 127.901 79.6123 128.09 79.1398 128.09C78.6673 128.09 78.2893 128.029 78.0058 127.908C78.0463 127.692 78.0665 127.462 78.0665 127.219C78.053 126.369 77.8438 125.68 77.4388 125.154C77.0338 124.614 76.4398 124.344 75.6568 124.344C74.8873 124.344 74.1718 124.594 73.5103 125.093C73.1188 125.66 72.815 126.402 72.599 127.32C72.383 128.238 72.275 129.143 72.275 130.034C72.275 131.519 72.5585 132.768 73.1255 133.78C73.706 134.779 74.6038 135.279 75.8188 135.279C76.9393 135.279 77.6953 134.853 78.0868 134.003C78.4513 133.26 78.6335 132.275 78.6335 131.047C79.322 131.047 79.8958 131.175 80.3548 131.431C80.8138 131.674 81.0433 132.079 81.0433 132.646C81.0433 133.969 80.4628 135.069 79.3018 135.947C78.1408 136.811 76.8313 137.243 75.3733 137.243C73.4698 137.243 72.0253 136.615 71.0398 135.36C70.0543 134.091 69.5615 132.376 69.5615 130.216C69.5615 128.056 70.1758 126.213 71.4043 124.688C72.6463 123.149 74.3203 122.379 76.4263 122.379ZM93.2805 128.819L93.078 133.274C93.078 134.462 93.2737 135.663 93.6652 136.878C93.2467 137.041 92.8215 137.122 92.3895 137.122C91.215 137.122 90.6277 136.5 90.6277 135.258C90.6277 134.34 90.7087 133.26 90.8707 132.018C91.0327 130.776 91.1137 130.014 91.1137 129.73C91.1137 129.028 90.7965 128.677 90.162 128.677C89.487 128.677 88.7377 129.312 87.9142 130.581C87.0907 131.836 86.6182 132.889 86.4967 133.74C86.5237 134.131 86.6587 135.137 86.9017 136.757C86.4832 136.919 86.0242 137 85.5247 137C84.4852 137 83.9655 136.494 83.9655 135.481C83.9655 134.995 84.0397 134.043 84.1882 132.626C84.3367 131.195 84.411 130.047 84.411 129.183C84.411 126.308 84.249 123.932 83.925 122.055C84.357 121.893 84.8025 121.812 85.2615 121.812C85.7205 121.812 86.0985 121.968 86.3955 122.278C86.706 122.575 86.8612 122.987 86.8612 123.513C86.8612 124.04 86.787 125.127 86.6385 126.774C86.5035 128.421 86.436 129.703 86.436 130.621C86.9085 129.622 87.597 128.711 88.5015 127.887C89.4195 127.05 90.3307 126.632 91.2352 126.632C92.5987 126.632 93.2805 127.361 93.2805 128.819ZM98.9709 132.403C98.9709 133.375 99.1261 134.145 99.4366 134.712C99.7471 135.265 100.267 135.542 100.996 135.542C101.725 135.542 102.292 135.299 102.697 134.813C103.115 134.313 103.325 133.713 103.325 133.011C103.784 133.011 104.182 133.125 104.519 133.355C104.857 133.584 105.026 133.902 105.026 134.307C105.026 135.144 104.58 135.846 103.689 136.413C102.798 136.966 101.86 137.243 100.874 137.243C99.3354 137.243 98.2216 136.831 97.5331 136.008C96.8446 135.171 96.5004 133.935 96.5004 132.302C96.5004 130.668 96.9594 129.298 97.8774 128.191C98.8089 127.071 100.044 126.51 101.583 126.51C102.636 126.51 103.48 126.753 104.114 127.239C104.762 127.712 105.086 128.454 105.086 129.467C105.086 130.466 104.627 131.222 103.709 131.735C102.805 132.234 101.698 132.484 100.388 132.484C99.9294 132.484 99.4569 132.457 98.9709 132.403ZM98.9911 130.803C99.3961 130.884 99.8214 130.925 100.267 130.925C101.239 130.925 102.056 130.743 102.717 130.378C102.798 130.054 102.839 129.798 102.839 129.609C102.839 129.136 102.67 128.778 102.332 128.535C101.995 128.292 101.529 128.171 100.935 128.171C100.355 128.171 99.8281 128.36 99.3556 128.738C99.1126 129.44 98.9911 130.128 98.9911 130.803ZM109.467 133.699C109.467 133.456 109.406 131.877 109.285 128.961C108.623 129.001 108.097 129.116 107.705 129.305C107.543 129.008 107.462 128.697 107.462 128.373C107.462 128.049 107.577 127.786 107.807 127.584C108.036 127.368 108.306 127.26 108.617 127.26C108.927 127.26 109.15 127.266 109.285 127.28C109.352 125.754 109.872 124.465 110.844 123.412C111.816 122.346 113.038 121.812 114.509 121.812C115.333 121.812 116.028 121.988 116.595 122.339C117.162 122.69 117.446 123.21 117.446 123.898C117.446 124.384 117.263 124.796 116.899 125.133C116.534 125.471 116.102 125.64 115.603 125.64C115.495 125.64 115.36 125.626 115.198 125.599C115.238 125.424 115.259 125.268 115.259 125.133C115.259 124.661 115.157 124.283 114.955 123.999C114.752 123.702 114.395 123.554 113.882 123.554C113.369 123.554 112.896 123.702 112.464 123.999C112.194 124.364 111.978 124.87 111.816 125.518C111.654 126.166 111.573 126.801 111.573 127.422H112.039C112.93 127.422 113.99 127.28 115.218 126.996C115.38 127.266 115.461 127.59 115.461 127.968C115.461 128.333 115.306 128.637 114.995 128.88C114.685 129.123 114.293 129.244 113.821 129.244C113.807 129.244 113.045 129.15 111.533 128.961L111.735 139.491C111.735 140.368 111.215 140.807 110.176 140.807C109.825 140.807 109.366 140.726 108.799 140.564C109.244 138.796 109.467 136.507 109.467 133.699ZM119.019 134.57C119.451 134.367 119.89 134.266 120.335 134.266C121.145 134.266 121.55 134.685 121.55 135.522C121.55 135.967 121.395 136.345 121.084 136.656C120.787 136.966 120.423 137.122 119.991 137.122C119.572 137.122 119.248 137 119.019 136.757C118.803 136.5 118.695 136.163 118.695 135.744C118.695 135.326 118.803 134.934 119.019 134.57ZM118.148 122.258C118.634 121.961 119.154 121.812 119.707 121.812C120.274 121.812 120.706 121.941 121.003 122.197C121.314 122.44 121.469 122.784 121.469 123.23C121.469 123.675 121.375 124.701 121.186 126.308C121.01 127.914 120.922 129.143 120.922 129.993C120.922 130.844 120.97 131.559 121.064 132.14C120.835 132.302 120.558 132.383 120.234 132.383C119.91 132.383 119.647 132.309 119.444 132.16C119.255 131.998 119.161 131.775 119.161 131.492C119.161 129.872 119.147 128.63 119.12 127.766C119.107 126.888 119.019 125.889 118.857 124.769C118.695 123.648 118.459 122.811 118.148 122.258Z" fill="black"/>
</g>
<circle cx="120.188" cy="135.375" r="2" fill="#FF5D1D"/>
<g filter="url(#filter1_di_195_272)">
<path d="M50.1371 61.9273H60.3139V36.2545H50.1371V61.9273ZM29.7835 72.1965V54.2255C25.8824 52.2572 22.787 49.4127 20.4972 45.6918C18.2074 41.971 17.0625 37.9266 17.0625 33.5588C17.0625 27.1406 19.2471 21.7065 23.6164 17.2566C27.9856 12.8066 33.3488 10.5816 39.7059 10.5816C40.7236 10.5816 41.7633 10.6672 42.8251 10.8384C43.8869 11.0095 44.9249 11.2234 45.9392 11.4802C48.0594 7.97155 50.8156 5.23311 54.2079 3.26486C57.6001 1.29661 61.3316 0.312485 65.4023 0.312485C69.4731 0.312485 73.2046 1.29661 76.5968 3.26486C79.9891 5.23311 82.7453 7.97155 84.8655 11.4802C85.8832 11.2234 86.9008 11.0095 87.9185 10.8384C88.9362 10.6672 89.9963 10.5816 91.0988 10.5816C97.4593 10.5816 102.824 12.8066 107.193 17.2566C111.563 21.7065 113.746 27.1406 113.742 33.5588C113.742 37.9232 112.597 41.9675 110.308 45.6918C108.018 49.4161 104.922 52.2606 101.021 54.2255V72.1965H29.7835ZM70.4907 61.9273H80.6676V36.2545H70.4907V61.9273ZM29.7835 103.004V82.4656H101.021V103.004H29.7835Z" fill="white"/>
<path d="M100.6 82.8877V102.582H30.2051V82.8877H100.6ZM49.7148 62.3496H60.7354V35.833H49.7148V62.3496ZM70.0693 62.3496H81.0898V35.833H70.0693V62.3496ZM30.2051 53.9658L29.9736 53.8486C26.1422 51.9155 23.1053 49.125 20.8564 45.4707C18.6076 41.8163 17.4844 37.8483 17.4844 33.5586C17.4844 27.2474 19.6277 21.9202 23.917 17.5517C28.2052 13.1843 33.4597 11.0039 39.7061 11.0039C40.6999 11.0039 41.7171 11.0871 42.7578 11.2549C43.8077 11.4241 44.834 11.636 45.8359 11.8896L46.1387 11.9658L46.2998 11.6982C48.385 8.24743 51.0918 5.56091 54.4199 3.62987C57.7453 1.70047 61.4031 0.73436 65.4023 0.73436C69.4016 0.73436 73.0594 1.70047 76.3848 3.62987C79.7129 5.56091 82.4197 8.24743 84.5049 11.6982L84.666 11.9658L84.9688 11.8896C85.9755 11.6357 86.982 11.4241 87.9883 11.2549C88.9813 11.0879 90.0181 11.0039 91.0986 11.0039C97.3484 11.0039 102.604 13.1844 106.893 17.5517C111.182 21.9202 113.324 27.2474 113.32 33.5586L113.308 34.3584C113.176 38.3395 112.057 42.0413 109.948 45.4707C107.699 49.1284 104.662 51.919 100.831 53.8486L100.6 53.9658V71.7744H30.2051V53.9658Z" stroke="#FF5D1D" stroke-width="0.84375"/>
</g>
<defs>
<filter id="filter0_d_195_272" x="6.15637" y="121.812" width="118.769" height="27" filterUnits="userSpaceOnUse" color-interpolation-filters="sRGB">
<feFlood flood-opacity="0" result="BackgroundImageFix"/>
<feColorMatrix in="SourceAlpha" type="matrix" values="0 0 0 0 0 0 0 0 0 0 0 0 0 0 0 0 0 0 127 0" result="hardAlpha"/>
<feOffset dy="3.375"/>
<feGaussianBlur stdDeviation="1.6875"/>
<feComposite in2="hardAlpha" operator="out"/>
<feColorMatrix type="matrix" values="0 0 0 0 0 0 0 0 0 0 0 0 0 0 0 0 0 0 0.25 0"/>
<feBlend mode="normal" in2="BackgroundImageFix" result="effect1_dropShadow_195_272"/>
<feBlend mode="normal" in="SourceGraphic" in2="effect1_dropShadow_195_272" result="shape"/>
</filter>
<filter id="filter1_di_195_272" x="10.5656" y="0.312485" width="106.298" height="121.845" filterUnits="userSpaceOnUse" color-interpolation-filters="sRGB">
<feFlood flood-opacity="0" result="BackgroundImageFix"/>
<feColorMatrix in="SourceAlpha" type="matrix" values="0 0 0 0 0 0 0 0 0 0 0 0 0 0 0 0 0 0 127 0" result="hardAlpha"/>
<feOffset dx="-1.6875" dy="14.3438"/>
<feGaussianBlur stdDeviation="2.40469"/>
<feComposite in2="hardAlpha" operator="out"/>
<feColorMatrix type="matrix" values="0 0 0 0 0 0 0 0 0 0 0 0 0 0 0 0 0 0 0.1 0"/>
<feBlend mode="normal" in2="BackgroundImageFix" result="effect1_dropShadow_195_272"/>
<feBlend mode="normal" in="SourceGraphic" in2="effect1_dropShadow_195_272" result="shape"/>
<feColorMatrix in="SourceAlpha" type="matrix" values="0 0 0 0 0 0 0 0 0 0 0 0 0 0 0 0 0 0 127 0" result="hardAlpha"/>
<feOffset dx="-0.84375" dy="2.53125"/>
<feGaussianBlur stdDeviation="1.89844"/>
<feComposite in2="hardAlpha" operator="arithmetic" k2="-1" k3="1"/>
<feColorMatrix type="matrix" values="0 0 0 0 0 0 0 0 0 0 0 0 0 0 0 0 0 0 0.25 0"/>
<feBlend mode="normal" in2="shape" result="effect2_innerShadow_195_272"/>
</filter>
</defs>
</svg>
